<?xml version="1.0" encoding="UTF-8"?>
<svg id="_Слой_1" data-name="Слой_1" xmlns="http://www.w3.org/2000/svg" version="1.1" viewBox="0 0 121.89 121.89">
  <!-- Generator: Adobe Illustrator 30.0.0, SVG Export Plug-In . SVG Version: 2.1.1 Build 123)  -->
  <defs>
    <style>
      .st0 {
        fill: #232e5c;
      }

      .st1 {
        fill: #fbbe03;
      }
    </style>
  </defs>
  <circle class="st1" cx="73.67" cy="60.49" r="4.71"/>
  <path class="st0" d="M67.98,46.72c2.42-.17,4.96.36,7.06,1.59.81.48,3.14,2.24,3.29,3.14.18,1.11-.75,1.88-1.8,1.46-.43-.17-.63-.73-.94-1.01-4.22-3.77-10.09-3.21-14.24.35-.83.71-1.49,1.81-2.17,2.42-1.15,1.03-2.68-.16-2-1.54.13-.26.68-.9.9-1.16,2.43-2.81,6.15-4.97,9.91-5.24Z"/>
  <path class="st0" d="M60.05,68.63c.42-.1,1.05,0,1.35.33.4.44,1.03,2.1,1.46,2.78,2.65,4.21,7.46,7.29,12.54,7.32.9,0,2.65-.59,2.99.68.42,1.57-1.01,1.76-2.18,1.84-6.57.44-12.79-3.48-15.91-9.1-.26-.46-1.11-2.12-1.14-2.55-.03-.51.37-1.17.89-1.29Z"/>
  <path class="st0" d="M93.4,77.02c1.02-.82,2.39-.05,2.12,1.26-.11.53-1.9,2.43-2.38,2.9-2.82,2.71-6.9,5.02-10.72,5.92-1.13.27-3.79,1.08-3.98-.64s1.4-1.48,2.53-1.72c4.99-1.07,8.26-3.22,11.76-6.83.21-.21.48-.73.67-.88Z"/>
  <path class="st0" d="M84.22,75.88c.31-.35,1.19-.82,1.62-1.19,14.58-12.51,7.44-37.61-11.19-41.48-16.21-3.37-29.92,9.61-33.02,24.71-4.35,21.19,12.15,44.13,33.73,46.19,1.14.38.99,2.22-.11,2.47s-3.66-.23-4.85-.49c-17.3-3.77-31.39-21.74-32.14-39.24-.82-19.11,13.17-37.95,33.46-36.79s31.82,26.96,19.1,43.21c-.81,1.04-4.03,4.37-5.16,4.71-1.41.42-2.41-1.03-1.46-2.09Z"/>
  <path class="st0" d="M67.98,38.46c12.39-.87,22.76,10.57,20.17,22.8-1.46,6.88-7.27,12.34-14.57,11.82-7.19-.51-12.96-7.65-10.9-14.8.33-1.14,1.29-3.88,2.92-2.92,1.3.77-.04,2.15-.37,3.06-2.94,8.14,6.99,14.86,14.49,10.71,10.09-5.58,6.93-20.63-2.18-25.83-12.53-7.14-25.95,3.54-28.52,16.12-4.17,20.38,14.54,38.62,34.31,38.8,1.17.01,3.61-.76,3.63,1.08.01,1.16-.94,1.37-1.9,1.44-22.91,1.65-44.81-21.45-37.94-44.36,2.8-9.32,10.85-17.22,20.87-17.92Z"/>
  <path class="st0" d="M67.98,21.94c2.83-.15,7.68,0,10.33.97,1.52.55,1.13,2.62-.49,2.56-1.45-.05-3.38-.82-4.93-.81l-3.79-.12c-15.31.65-27.17,10.39-32.5,24.42-7.2,18.97-1.27,38.66,14.33,51.14.48.38,2.36,1.59,2.52,1.95.61,1.37-.66,2.36-1.99,1.65-2.32-1.22-6.06-4.82-7.89-6.8-13.09-14.22-16.36-33.68-8.39-51.44,5.94-13.23,18.02-22.75,32.82-23.53Z"/>
  <path class="st0" d="M65.11,15.28c1.13-.06,2.92-.23,2.64,1.49-.22,1.33-1.55,1.03-2.44,1.12-19.4,1.99-33.36,16.52-36.63,35.44-.16.93-.24,3.03-.53,3.72-.56,1.33-2.53.97-2.5-.66.15-8.05,4.83-18.53,9.72-24.83,6.91-8.91,18.32-15.67,29.74-16.27Z"/>
  <path class="st0" d="M54.31,60.49c1.18-.27,1.69.43,1.64,1.52-.04.88-.32,1.95-.35,2.87-.5,15.63,16.96,27.32,31.59,24.47.56-.11,2.32-.68,2.66-.65,1.22.12,1.64,1.86.44,2.5-1.47.78-6.04,1.28-7.77,1.29-15.25.1-32.34-14.21-29.18-30.44.11-.57.28-1.4.97-1.56Z"/>
</svg>